<?xml version="1.0" encoding="iso-8859-1"?>
<!-- Generator: Adobe Illustrator 19.0.0, SVG Export Plug-In . SVG Version: 6.00 Build 0)  -->
<svg version="1.1" id="Capa_1" xmlns="http://www.w3.org/2000/svg" xmlns:xlink="http://www.w3.org/1999/xlink" x="0px" y="0px"
	 viewBox="0 0 512.001 512.001" style="enable-background:new 0 0 512.001 512.001;" xml:space="preserve">
<rect x="158.031" y="390.563" style="fill:#FF4F4F;" width="170.389" height="113.405"/>
<rect x="158.031" y="236.94" style="fill:#EFEFEF;" width="170.389" height="157.639"/>
<path style="fill:#FF4F4F;" d="M158.034,240.957v-57.118c0-32.307,26.288-58.59,58.6-58.59h53.193c32.313,0,58.6,26.283,58.6,58.59
	v57.118H158.034z"/>
<rect x="217.936" y="47.104" style="fill:#EFEFEF;" width="50.578" height="82.162"/>
<polygon style="fill:#5A6B96;" points="264.506,68.104 264.506,30.12 404.163,7.683 404.163,90.541 "/>
<path d="M400.564,98.097c0.53,0.085,1.063,0.127,1.592,0.127c2.369,0,4.682-0.839,6.512-2.398c2.238-1.907,3.528-4.7,3.528-7.641
	V10.04c0-2.941-1.289-5.733-3.528-7.641s-5.202-2.739-8.104-2.271L264.922,21.919c-4.868,0.782-8.447,4.983-8.447,9.913v7.241
	h-36.528h-53.128c-2.662,0-5.215,1.058-7.099,2.941l-56.974,56.974c-3.92,3.92-3.92,10.277,0,14.199
	c1.961,1.961,4.53,2.941,7.099,2.941c2.569,0,5.138-0.98,7.099-2.941l54.033-54.033h38.93v58.404
	c-33.594,3.383-59.905,31.818-59.905,66.282v55.11v153.619v109.393c0,5.545,4.496,10.039,10.039,10.039h166.378
	c5.544,0,10.039-4.495,10.039-10.039V392.568V238.949v-55.11c0-34.465-26.311-62.9-59.905-66.282V78.174L400.564,98.097z
	 M276.554,40.387l115.562-18.566v54.582L276.554,57.838V40.387z M256.475,66.393v50.824h-26.489V59.151h26.489V66.393z
	 M316.38,382.528H170.081v-133.54H316.38V382.528z M170.081,491.921v-15.594h55.468c5.544,0,10.039-4.495,10.039-10.039
	c0-5.545-4.496-10.039-10.039-10.039h-55.468v-53.641H316.38v89.314H170.081z M316.38,183.839v45.071H170.081v-45.071
	c0-25.664,20.884-46.543,46.553-46.543h3.313h46.568h3.313C295.496,137.296,316.38,158.175,316.38,183.839z"/>
<path d="M206.915,292.277h72.631c5.544,0,10.039-4.495,10.039-10.039s-4.496-10.039-10.039-10.039h-72.631
	c-5.544,0-10.039,4.495-10.039,10.039S201.371,292.277,206.915,292.277z"/>
<path d="M206.915,325.803h72.631c5.544,0,10.039-4.495,10.039-10.039s-4.496-10.039-10.039-10.039h-72.631
	c-5.544,0-10.039,4.495-10.039,10.039S201.371,325.803,206.915,325.803z"/>
<path d="M206.915,359.329h36.316c5.544,0,10.039-4.495,10.039-10.039s-4.496-10.039-10.039-10.039h-36.316
	c-5.544,0-10.039,4.495-10.039,10.039S201.371,359.329,206.915,359.329z"/>
<path d="M259.991,456.248c-12.92,0-12.941,20.079,0,20.079C272.91,476.327,272.931,456.248,259.991,456.248z"/>
<g>
</g>
<g>
</g>
<g>
</g>
<g>
</g>
<g>
</g>
<g>
</g>
<g>
</g>
<g>
</g>
<g>
</g>
<g>
</g>
<g>
</g>
<g>
</g>
<g>
</g>
<g>
</g>
<g>
</g>
</svg>
